<?xml version="1.0" standalone="no"?><!DOCTYPE svg PUBLIC "-//W3C//DTD SVG 1.1//EN" "http://www.w3.org/Graphics/SVG/1.1/DTD/svg11.dtd"><svg t="1658644219186" class="icon" viewBox="0 0 1024 1024" version="1.1" xmlns="http://www.w3.org/2000/svg" p-id="11175" xmlns:xlink="http://www.w3.org/1999/xlink" width="200" height="200"><defs><style type="text/css">@font-face { font-family: feedback-iconfont; src: url("//at.alicdn.com/t/font_1031158_u69w8yhxdu.woff2?t=1630033759944") format("woff2"), url("//at.alicdn.com/t/font_1031158_u69w8yhxdu.woff?t=1630033759944") format("woff"), url("//at.alicdn.com/t/font_1031158_u69w8yhxdu.ttf?t=1630033759944") format("truetype"); }
</style></defs><path d="M491 335m-222.2 0a222.2 222.2 0 1 0 444.4 0 222.2 222.2 0 1 0-444.4 0Z" fill="#E6EBED" p-id="11176"></path><path d="M612.6 149c-34.9-22.9-76.7-36.2-121.6-36.2-53.1 0-101.8 18.6-140 49.7 44.2 5.3 130.3 30.4 142.6 145.3 0-0.1-6.5-106.5 119-158.8z" fill="#FFFFFF" p-id="11177"></path><path d="M491 569.4c-129.2 0-234.4-105.1-234.4-234.4S361.8 100.6 491 100.6 725.4 205.8 725.4 335 620.3 569.4 491 569.4z m0-444.4c-115.8 0-210 94.2-210 210s94.2 210 210 210 210-94.2 210-210-94.2-210-210-210z" fill="#5E4153" p-id="11178"></path><path d="M491.2 330.1c0 85.6-111.5 155-200.2 155s-151-69.4-151-155 52.6-155 141.4-155 209.8 69.4 209.8 155z" fill="#E6EBED" p-id="11179"></path><path d="M277.6 661.2s-40.7-44.7-111.9 12.2C131.1 705.9 82.3 710 82.3 710s30.5 18.3 115.9-10.2 113.9 20.3 113.9 20.3l-34.5-58.9z" fill="#1EBA7B" p-id="11180"></path><path d="M136.8 375.8s58.6-180.5 232.9-139.3c6.1 1.4 9.7-6.7 4.5-10.2-26.9-18.2-79.9-42.6-161.4-31.2-76 10.4-85.7 154.3-76 180.7z" fill="#FFFFFF" p-id="11181"></path><path d="M320.2 729.8c-3.6 0-7.2-1.6-9.6-4.6-1.2-1.5-33-38.9-108.5-13.7-88.2 29.4-122.5 11.2-126.1 9.1-4.5-2.7-6.8-7.9-5.6-13 1.1-5.1 5.3-8.9 10.5-9.5 43.5-5 64.5-21.3 84.8-37 13.9-10.8 28.3-22 48.6-28.3 43.2-13.3 66.6 8 73.8 22.3l41.8 55.4c4 5.3 3 12.9-2.3 17-2.2 1.5-4.8 2.3-7.4 2.3z m-79.9-77.1c-5.3 0-11.5 0.9-18.8 3.2-16 4.9-27.5 13.9-40.8 24.2-8.2 6.4-16.8 13-27 19.2 11.7-2.4 25.2-5.9 40.7-11.1 34.6-11.5 62-11.7 82.9-7.3l-9.4-12.5c-0.6-0.9-1-1.4-1.4-2.4-1.1-1.9-7.5-13.3-26.2-13.3z" fill="#5E4153" p-id="11182"></path><path d="M490.8 330.1c0 85.6 111.5 155 200.2 155s151-69.4 151-155-52.6-155-141.4-155-209.8 69.4-209.8 155z" fill="#FFFFFF" p-id="11183"></path><path d="M842.1 330.1c0-24.1-4.2-46.8-12.1-67.2-29.7-22.2-69-35.4-116.4-35.4-73.9 0-165.5 32.1-219.9 80.2-1.8 7.3-2.8 14.8-2.8 22.4 0 85.6 111.5 155 200.2 155s151-69.4 151-155z" fill="#E6EBED" p-id="11184"></path><path d="M291 497.3c-45.7 0-87.5-17.5-117.6-49.2-29.4-30.9-45.6-72.8-45.6-118 0-45.7 14.3-87.4 40.4-117.5 28.1-32.5 67.2-49.6 113.2-49.6 45.4 0 98.3 16.9 141.5 45.1 5.6 3.7 7.2 11.2 3.5 16.9-3.7 5.6-11.2 7.2-16.9 3.5-38.8-25.4-87.9-41.2-128.2-41.2-89.2 0-129.2 71.7-129.2 142.8 0 81.4 59.7 142.8 138.8 142.8 84.6 0 188-65.9 188-142.8 0-21.2-8.5-42.3-25.1-62.7-4.3-5.2-3.5-12.9 1.7-17.2 5.2-4.3 12.9-3.5 17.2 1.7 20 24.5 30.6 51.5 30.6 78.1 0.1 92.7-116.1 167.3-212.3 167.3z" fill="#5E4153" p-id="11185"></path><path d="M594.4 474c0 114.7-151.7 207.6-267.4 207.6s-209.5-93-209.5-207.6S211.3 266.4 327 266.4s267.4 93 267.4 207.6z" fill="#E6EBED" p-id="11186"></path><path d="M306.6 258.7s72.4 5.8 94.6 32.8c0 0-269.2 56-230.6 307.8-38.6-6.7-147.3-302.2 136-340.6z" fill="#FFFFFF" p-id="11187"></path><path d="M324.1 691.9c-122.2 0-221.7-98.6-221.7-219.8 0-121.2 99.4-219.8 221.7-219.8 22.8 0 47 3.4 71.9 10 6.5 1.7 10.4 8.4 8.6 14.9s-8.4 10.4-14.9 8.6c-22.8-6.1-44.9-9.2-65.6-9.2-108.8 0-197.3 87.7-197.3 195.4s88.5 195.4 197.3 195.4c54.5 0 119.6-22.4 170-58.5 55-39.4 85.2-88 85.2-136.9 0-50.1-33.1-101.4-90.9-140.9-5.6-3.8-7-11.4-3.2-17s11.4-7 17-3.2c64.5 44.1 101.5 102.8 101.5 161 0 56.9-33.9 112.6-95.4 156.7-55.1 39.7-124 63.3-184.2 63.3z" fill="#5E4153" p-id="11188"></path><path d="M736.2 649.4s32.1-53.3 115.2-10.1c41.4 25.9 91.4 20.2 91.4 20.2s-27.1 24.6-118.9 12.9c-91.8-11.6-127 31.9-127 31.9l39.3-54.9z" fill="#1EBA7B" p-id="11189"></path><path d="M692.3 718.2c-2.7 0-5.5-0.9-7.8-2.8-5.1-4.2-5.9-11.7-1.9-16.9l42.5-54.7c5-15.8 24.4-40.2 69.1-35.6 21.6 2.2 38.4 10.6 54.5 18.7 23.7 11.9 48.2 24.1 93.1 20.4 5.2-0.4 10.1 2.5 12.2 7.3 2.1 4.8 0.9 10.4-3 13.9-3.2 2.9-34 28-128.6 16-84.4-10.7-120.6 29.1-121 29.5-2.4 2.8-5.8 4.2-9.1 4.2z m55.8-66.1c-0.4 1.9-1.1 3.3-2.3 4.8l-7.3 9.3c21.9-6.6 50.6-10.4 86.9-5.8 17.5 2.2 32.5 3.1 45.2 3-12.3-4.3-22.8-9.6-32.8-14.6-15.5-7.8-28.9-14.5-46.1-16.3-36-3.7-42.8 16.7-43.6 19.6zM691.1 497.3c-96.2 0-212.4-74.6-212.4-167.1 0-6.7 5.5-12.2 12.2-12.2 6.7 0 12.2 5.5 12.2 12.2 0 76.9 103.4 142.8 188 142.8 79.1 0 138.8-61.4 138.8-142.8 0-71.1-39.9-142.8-129.2-142.8-45.3 0-100.6 19.7-140.9 50.1-5.4 4.1-13 3-17.1-2.4-4.1-5.4-3-13 2.4-17.1 44.9-33.9 104.6-55 155.6-55 46 0 85.1 17.2 113.2 49.6 26 30.1 40.4 71.9 40.4 117.5 0 45.2-16.2 87.1-45.6 118-30.2 31.7-71.9 49.2-117.6 49.2z" fill="#5E4153" p-id="11190"></path><path d="M867.5 472.1c0 114.7-93.8 207.6-209.5 207.6s-267.4-93-267.4-207.6S542.3 264.5 658 264.5s209.5 92.9 209.5 207.6z" fill="#E7EDF1" p-id="11191"></path><path d="M867.5 472.1c0 114.7-93.8 207.6-209.5 207.6s-267.4-93-267.4-207.6S542.3 264.5 658 264.5s209.5 92.9 209.5 207.6z" fill="#FFFFFF" p-id="11192"></path><path d="M698.7 675.8C794.9 657 867.4 573 867.4 472.1c0-114.7-93.8-207.6-209.5-207.6-1.9 0-3.8 0-5.7 0.1 81.2 22.7 139.8 87.1 139.8 163 0 20-4.1 39.2-11.6 57.1-3.9 9.3-17.4 8.2-19.8-1.6-24.4-101.1-123.7-175.2-232-175.2 147.7 55.8 226.5 162.3 170.1 367.9z" fill="#E6EBED" p-id="11193"></path><path d="M658 691.9c-60.2 0-129.1-23.6-184.2-63.1-61.5-44.1-95.4-99.8-95.4-156.7 0-44.7 21-88.9 60.7-127.8 35-34.2 82.1-61.9 132.8-77.9 6.4-2 13.3 1.5 15.3 8 2 6.4-1.5 13.3-8 15.3-87.7 27.7-176.5 99.2-176.5 182.4 0 48.9 30.3 97.5 85.2 136.9 50.3 36.1 115.5 58.5 170 58.5 108.8 0 197.3-87.7 197.3-195.4S766.8 276.7 658 276.7c-6.7 0-12.2-5.5-12.2-12.2s5.5-12.2 12.2-12.2c122.2 0 221.7 98.6 221.7 219.8 0 121.2-99.5 219.8-221.7 219.8z" fill="#5E4153" p-id="11194"></path><path d="M713.2 533.8c0 122.7-99.5 183.6-222.2 183.6s-222.2-60.9-222.2-183.6S368.3 311.6 491 311.6s222.2 99.5 222.2 222.2z" fill="#FFFFFF" p-id="11195"></path><path d="M539.1 316.8C575.9 349.4 599 397 599 449.9c0 98.3-79.7 147-178 147-64.5 0-121-21-152.2-63.2 0 122.7 99.5 183.6 222.2 183.6 122.7 0 222.2-60.9 222.2-183.6 0-106.1-74.5-194.9-174.1-216.9z" fill="#E6EBED" p-id="11196"></path><path d="M491 729.6c-66.1 0-122.9-16.7-164.5-48.3-45.7-34.8-69.9-85.8-69.9-147.5 0-76.9 37.8-149 101.1-192.9 5.5-3.8 13.1-2.5 17 3.1 3.8 5.5 2.5 13.1-3.1 17-56.7 39.3-90.6 103.9-90.6 172.8 0 126.4 108.5 171.4 210 171.4s210-45 210-171.4c0-115.8-94.2-210-210-210-13.2 0-26.4 1.2-39.3 3.7-6.6 1.3-13-3.1-14.3-9.7s3.1-13 9.7-14.3c14.3-2.7 29.1-4.1 43.8-4.1 129.2 0 234.4 105.1 234.4 234.4 0 61.8-24.2 112.8-69.9 147.5-41.4 31.6-98.3 48.3-164.4 48.3z" fill="#5E4153" p-id="11197"></path><path d="M485.2 701.2s172.2 10.1 215.7-120.1c11.6-72.4 47.8-91.2 47.8-91.2s-20.3 40.5-8.7 99.9c18.8 70.9-49.2 196.8-254.8 111.4z" fill="#39EDB6" p-id="11198"></path><path d="M756.8 488.3s-29.1 15.1-43.4 70.3c0.4 2.9 0.9 5.9 1.5 9 18 67.9-40.7 184.3-217.5 132.1-1.4 0.3-3 0-3 0 205.5 85.4 272.5-40.6 253.7-111.6-11.6-59.3 8.7-99.8 8.7-99.8z" fill="#1EBA7B" p-id="11199"></path><path d="M468.1 720.7s26.3 69.8-30.9 155.4c-3.8 5.6-3.4 13.1 1 18.3 6.8 8.2 18.4 17.2 32.8 9.8 0.7-0.3 1.4-0.7 2.1-0.9 40.1-14.9 50-140.5 40.4-186.4 0-0.1-42.5 3.8-45.4 3.8z" fill="#39EDB6" p-id="11200"></path><path d="M519.9 728.2l-39.8-22.8 1.6 32.5 17.1 2.5c-0.2 86.9-11.4 139.8-59.3 159.3 59.3 30.7 77-53.2 80.4-171.5zM472.3 694.8s-139.9 24.3-187.7-76.6c-16.4-57.3-47.5-68.9-47.5-68.9s20.3 30.7 16.8 79.8c-8.2 59 60.9 154.7 218.4 65.7z" fill="#1EBA7B" p-id="11201"></path><path d="M290 643c0.4-6.2 0.5-12.1 0.5-17.9-0.4-0.8-0.9-1.6-1.3-2.5-17.8-56.9-49.1-67.8-49.1-67.8s21 30.2 18.7 79.3c-3.4 29.9 13 68.5 49.9 87.7-15.8-25.3-22-54.2-18.7-78.8z" fill="#39EDB6" p-id="11202"></path><path d="M771.5 468.2c-3.8-3.7-9.5-4.6-14.2-2.1-1.8 0.9-43.4 23.4-56.6 104-17.7 52.2-57.9 87.9-119.3 106-47.1 13.9-89.8 11.8-90.6 11.7-0.8 0-1.5 0-2.2 0.1-1.1-0.1-2.3-0.1-3.4 0.1-1.4 0.2-138.4 21.3-187.9-81.4-20-68.5-58.8-83.8-60.4-84.4-4.9-1.8-10.5-0.3-13.8 3.8-3.3 4.1-3.6 9.9-0.7 14.3 0.2 0.3 20.4 32 16.9 81.5-4.7 34.7 8.8 81.9 49.6 109.7 20.2 13.8 44.4 20.7 71.9 20.7 3.7 0 7.5-0.1 11.4-0.4 27.1-1.8 56.8-10.1 88.5-24.6 4.1 26.4 5 80.6-36.5 142.8-7.2 10.8-6.5 24.7 1.8 34.6 10 12 21.7 18.2 33.6 18.2 5.7 0 11.5-1.4 17.2-4.3 0.3-0.1 0.6-0.3 1-0.4 46.3-17.3 58.5-127.1 55.2-189.7 31.2 9.3 60.3 14 86.9 14 4 0 8-0.1 11.9-0.3 37.5-2.1 68.9-13.9 93.1-35 41.7-36.4 50.5-90.2 40.8-127.5-11-57.1 8-96.8 8.2-97.1 2.3-4.9 1.4-10.6-2.4-14.3z m-469 243.1c-32.1-21.9-42.8-60.2-39.1-86.6 0-0.3 0.1-0.5 0.1-0.8 1.1-15.1 0.3-28.8-1.5-40.8 4.3 8.5 8.5 18.7 12 31.1 0.2 0.6 0.4 1.3 0.7 1.9 23.7 50 68.5 82.4 129.6 93.8 9.1 1.7 17.9 2.8 26.1 3.5-52.3 19.6-96.6 19.2-127.9-2.1z m166.7 183.9c-1.3 0.5-2.5 1-3.6 1.6-2.8 1.4-10.2 5.2-21-7.7-1.3-1.6-1.4-3.7-0.3-5.4 49.4-74.1 44.9-138.3 39.2-166.7 4-0.3 8.5-0.7 13.1-1.1 3.9 1.5 7.7 2.9 11.5 4.3 6.1 59.5-9.8 164.1-38.9 175z m239.6-206.6c-35.2 30.8-90.2 37.3-157.9 19.4 11.4-1.9 23.8-4.5 36.6-8.3C656.8 679.5 704 637 724.1 576.9c0.2-0.6 0.4-1.3 0.5-1.9 3.2-20 8.3-35.7 13.9-48-1.3 16.4-0.9 35.9 3.3 57.6 0.1 0.3 0.1 0.5 0.2 0.8 7.7 29 0.6 73.7-33.2 103.2z" fill="#5E4153" p-id="11203"></path></svg>